<?xml version="1.0" encoding="UTF-8"?><svg id="FLT_ART_WORKS" xmlns="http://www.w3.org/2000/svg" viewBox="0 0 200 90"><defs><style>.cls-1{fill:#0143a7;}.cls-2{fill:#fff;}</style></defs><g id="FLT_ART_WORKS-2"><path class="cls-2" d="M156.47,51.67h-30.39c.36-2.13,.54-4.3,.55-6.46,0-9.76-3.7-19.15-10.36-26.28-14.5-15.51-38.82-16.33-54.33-1.83-15.51,14.5-16.33,38.82-1.83,54.33,14.5,15.51,38.82,16.33,54.33,1.83v4.12c0,2.48,2.02,4.49,4.5,4.5h37.56c2.48,0,4.49-2.02,4.5-4.5v-21.21h0c-.01-2.5-2.04-4.51-4.53-4.5Z"/><path class="cls-1" d="M52.43,45.65c-.01-10.96,4.99-21.32,13.57-28.13,.46,.16,.9,.35,1.33,.58,1.03,.67,1.99,1.45,2.86,2.32,.82,.96,.39,1.57-.87,1.68-1.06,.1-2.11,.28-3.15,.52-.28,.1-.51,.32-.61,.6-.05,.12,.29,.48,.52,.57,.89,.37,1.83,.61,2.7,1,1.05,.43,2.06,.97,3,1.61,.22,.12,.38,.32,.47,.55,.21,.55-.07,1.17-.62,1.38-1.23,.74-1.93,1.13-3.37-.15-.23,1.17-.41,2.26-.63,3.26-.12,1-.88,1.81-1.87,2-1.54,.46-2.94,1.3-4.08,2.44-1.73,1.44-1.83,3.35-2,5.35-.12,1.25,.87,1.87,1.64,2.6l.14,.16c.14,.62,.17,1.25,.08,1.88-.23,.46-.68,.78-1.19,.83-.52-.23-.96-.62-1.25-1.11-.42-.54-.6-1.24-1-1.78-.48-.74-1.09-1.38-1.8-1.9-.56-.23-1.2-.16-1.71,.18-.39,.48-.54,1.11-.42,1.72,.18,.57,.53,1.08,1,1.46,.55,.55,1.23,.97,1.83,1.47,1.26,.92,2.02,2.37,2.08,3.93,.03,1.26,.5,1.73,1.73,1.83,.5,.07,1,.07,1.5,0,1.15-.23,2.34,.2,3.08,1.11,1.38,1.39,2.65,2.89,3.79,4.48,1.7,2.67,4.31,4.63,7.35,5.51,.84,.28,1.62,.72,2.29,1.3,.05,.04,.09,.08,.13,.12,.63,.62,.63,1.64,0,2.26-.79,1.13-1.46,2.34-2.25,3.47-.6,.82-1.24,1.6-1.93,2.35-.62,.71-1.37,1.33-1.92,2.09-.47,.72-.89,1.47-1.25,2.25-2.65-1.39-5.11-3.11-7.33-5.12-.15-1.54-.86-2.96-2-4-2.18-1.98-3.29-4.88-3-7.81,.14-1.06,.2-2.13,.2-3.2,.06-1.2-.48-2.34-1.43-3.07-.77-.48-1.47-1.08-2.07-1.77-1.2-1.61-2.3-3.31-3.51-5.12-.03-.57-.04-1.13-.04-1.7Zm18.72-31.1c1.89,.06,3,1.35,4.11,2.62,.4,.63,.73,1.3,1,2,.44,.91,.97,1.77,1.59,2.57,.59,.68,1.19,.49,1.54-.36s.58-1.61,.83-2.43c.47-1.73,1.99-2.98,3.78-3.12,1.06-.14,2.13-.26,3.19-.31,1.91-.1,2.89-1.35,3.68-2.86,.42-.79,.79-1.59,1.25-2.36,.11-.15,.26-.28,.43-.35-1.4-.16-2.8-.24-4.21-.24-6.19,0-12.27,1.58-17.66,4.62,.13,.12,.29,.2,.47,.22Zm89.82,41.62v21.21c0,2.48-2.02,4.5-4.5,4.5h-37.53c-2.48,0-4.5-2.02-4.5-4.5v-4.11c-6.88,6.45-16.13,10.41-26.28,10.41-21.21,0-38.47-17.26-38.47-38.47S66.95,6.74,88.16,6.74s38.47,17.26,38.47,38.47c0,2.2-.2,4.36-.55,6.46h30.39c2.48,0,4.5,2.02,4.5,4.5ZM112.9,19.82c.68,.97,1.11,2.2,2.46,2.65-.78-.93-1.6-1.81-2.46-2.65Zm2.34,17.08c.89-.94,1.01-1.48-.19-1.94-1.36-.6-2.83-.94-4.32-1-1.52,.04-2.99-.53-4.08-1.6-2.26-1.97-5.06-2.87-7.8-.12-1.21,1.09-2.79,1.68-4.42,1.64-.55,0-1.07-.25-1.41-.68-.22-.55-.21-1.16,.05-1.69,.33-.46,.82-.78,1.38-.88,.99-.15,2-.25,3-.29,.65-.08,1.4-.25,.87-1.08-.91-1.46-1.71-3.09-3.52-3.74-.35-.14-.68-.32-1-.52-1.16-.72-1.16-1.5,0-2.27,1.82-1.22,4.28-.88,5.7,.79,.66,.89,1.79,1.28,2.86,1,1-.2,1.3-.6,1-1.6-.25-.79-.6-1.53-.87-2.3-.77-2.22-.14-3.56,2.06-4.38,.79-.3,1.65-.56,2.7-.9-5.52-3.54-12.06-5.6-19.09-5.6-19.56,0-35.47,15.91-35.47,35.47s15.91,35.47,35.47,35.47c5.49,0,10.69-1.25,15.34-3.49,.31-1.07,.59-2.15,.8-3.24,.26-1.1,.3-2.24,.12-3.35-1.12-3.61-1.79-7.35-2-11.12-.01-1.62-.84-2.14-2.48-2.09s-3.28,.22-4.91,.16c-2.16,.05-4.19-1.06-5.3-2.92-1.24-1.99-1.76-4.34-1.47-6.67,.73-5.2,3.74-8.92,8.08-11.63,2.37-1.66,5.55-1.56,7.8,.25,.93,.72,1.94,1.34,3,1.84,3,1.3,5.73,.98,8.1-1.52Zm1.95,15.12c.54-.23,1.13-.35,1.75-.35h4.1c.39-2.09,.59-4.25,.59-6.46,0-.93-.05-1.84-.12-2.75-.96-.65-2.06-1.28-2.91-1.78-.91-.54-1.79-1.13-2.73-1.6-.24-.12-.66,.11-1,.17,.12,.35,.16,.78,.39,1,.99,.93,2.06,1.78,3.06,2.68,.51,.44,.99,.92,1.42,1.44,.72,1.02,.79,2.36,.2,3.45-.4,1-1.31,.85-2.14,1-.83,.15-1.64,.45-2.37,.87-1.23,.77-1.27,1.48-.24,2.33Zm40.78,13.69h-40.53v11.67c0,.83,.67,1.5,1.5,1.5h37.53c.83,0,1.5-.67,1.5-1.5v-11.67Zm0-9.54c0-.83-.67-1.5-1.5-1.5h-37.53c-.83,0-1.5,.67-1.5,1.5v3.61h40.53v-3.61Z"/></g></svg>